<svg id="Capa_1" enable-background="new 0 0 512 512" height="512" viewBox="0 0 512 512" width="512" xmlns="http://www.w3.org/2000/svg"><g><g><path d="m448.161 504.495h-99.477c-15.724 0-28.471-12.747-28.471-28.471v-89.667c0-15.724 12.747-28.471 28.471-28.471h99.477c15.724 0 28.471 12.747 28.471 28.471v89.667c0 15.725-12.747 28.471-28.471 28.471z" fill="#fff0af"/></g><g><path d="m449.403 357.919c.018.417.032.836.032 1.258v89.634c0 15.733-12.754 28.487-28.487 28.487h-99.445c-.422 0-.84-.014-1.258-.032.659 15.149 13.144 27.229 28.455 27.229h99.445c15.733 0 28.487-12.754 28.487-28.487v-89.634c0-15.311-12.08-27.796-27.229-28.455z" fill="#ffe07d"/></g><g><path d="m387.962 376.716h-324.596c-22.091 0-40-17.909-40-40v-289.212c0-22.091 17.909-40 40-40h324.596c22.091 0 40 17.909 40 40v289.212c0 22.092-17.909 40-40 40z" fill="#fff0af"/></g><g><path d="m391.425 7.665c.099 1.15.16 2.311.16 3.487v289.166c0 22.104-17.919 40.023-40.023 40.023h-324.549c-1.176 0-2.337-.061-3.487-.161 1.768 20.47 18.934 36.536 39.862 36.536h324.549c22.104 0 40.023-17.919 40.023-40.023v-289.166c.002-20.928-16.065-38.094-36.535-39.862z" fill="#ffe07d"/></g><g><path d="m387.939 7.504h-324.55c-22.104 0-40.023 17.919-40.023 40.023v48.407h404.596v-48.407c0-22.104-17.919-40.023-40.023-40.023z" fill="#335995"/></g><g><path d="m391.425 7.665c.099 1.15.16 2.311.16 3.487v84.783h36.376v-48.408c.001-20.928-16.066-38.094-36.536-39.862z" fill="#21386b"/></g><g><circle cx="360.837" cy="177.434" fill="#335995" r="39.524"/></g><g><path d="m378.202 141.925c2.568 5.242 4.015 11.134 4.015 17.365 0 21.829-17.696 39.525-39.524 39.525-6.231 0-12.123-1.447-17.365-4.015 6.429 13.122 19.912 22.16 35.509 22.16 21.829 0 39.525-17.696 39.525-39.524-.001-15.599-9.039-29.082-22.16-35.511z" fill="#21386b"/></g><g><circle cx="82.357" cy="52.393" fill="#64a1d9" r="16.049"/></g><g><path d="m88.004 37.386c.662 1.759 1.042 3.656 1.042 5.647 0 8.864-7.185 16.049-16.049 16.049-1.99 0-3.888-.379-5.647-1.042 2.287 6.073 8.134 10.402 15.007 10.402 8.863 0 16.049-7.185 16.049-16.049 0-6.873-4.329-12.72-10.402-15.007z" fill="#4278c3"/></g><g><circle cx="231.306" cy="275.198" fill="#df75a5" r="19.745"/></g><g><path d="m237.978 256.634c.423 1.608.671 3.287.671 5.028 0 10.905-8.84 19.745-19.745 19.745-2.345 0-4.585-.43-6.672-1.181 2.227 8.465 9.91 14.717 19.074 14.717 10.905 0 19.745-8.84 19.745-19.745 0-8.559-5.457-15.825-13.073-18.564z" fill="#dd5790"/></g><g><path d="m143.385 219.239 68.677 130.527c2.455 4.667 8.111 6.627 12.928 4.48l31.088-13.854c5.259-2.344 6.398-9.307 2.159-13.204l-17.275-15.881c-12.573-11.559-19.031-28.323-17.463-45.33l4.31-46.738z" fill="#335995"/></g><g><path d="m258.237 327.189-17.275-15.881c-12.573-11.559-19.031-28.323-17.463-45.33l4.31-46.738h-23.85l-4.519 49.008c-1.901 20.614 5.928 40.934 21.168 54.945l20.939 19.25c1.075.988 1.848 2.144 2.367 3.373l12.165-5.421c5.259-2.346 6.397-9.309 2.158-13.206z" fill="#21386b"/></g><g><path d="m113.366 197.229h-35.703c-10.926 0-19.783-8.857-19.783-19.783v-.023c0-10.926 8.857-19.783 19.783-19.783h35.703z" fill="#df75a5"/></g><g><path d="m90.853 157.64v9.158c0 8.96-7.263 16.223-16.223 16.223h-15.938c2.413 8.21 9.991 14.208 18.982 14.208h35.691v-39.589z" fill="#dd5790"/></g><g><path d="m318.183 78.113c-11.728 28.336-39.374 46.813-70.041 46.813h-51.769v105.016h51.769c30.667 0 58.313 18.477 70.041 46.813 2.235 5.399 7.503 8.92 13.346 8.92h15.003c4.421 0 8.005-3.584 8.005-8.005v-200.472c0-4.421-3.584-8.005-8.005-8.005h-15.003c-5.843 0-11.111 3.521-13.346 8.92z" fill="#df75a5"/></g><g><path d="m346.532 69.193h-15.003c-.943 0-1.868.101-2.77.277v161.279c0 4.421-3.584 8.005-8.005 8.005h-15.003c-5.843 0-11.111-3.521-13.346-8.92-11.728-28.336-39.374-46.813-70.041-46.813h-25.992v46.922h51.769c30.667 0 58.313 18.477 70.041 46.813 2.235 5.399 7.503 8.92 13.346 8.92h15.003c4.421 0 8.005-3.584 8.005-8.005v-200.473c0-4.421-3.583-8.005-8.004-8.005z" fill="#dd5790"/></g><g><path d="m211.561 229.942h-85.016c-11.046 0-20-8.954-20-20v-65.016c0-11.046 8.954-20 20-20h85.016z" fill="#335995"/></g><g><path d="m106.546 183.02v26.91c0 11.052 8.959 20.012 20.012 20.012h85.004v-46.922z" fill="#21386b"/></g><g><path d="m448.145 357.887h-99.445c-15.733 0-28.487 12.754-28.487 28.487v19.804h156.419v-19.804c0-15.733-12.754-28.487-28.487-28.487z" fill="#ffd064"/></g><g><path d="m449.403 357.919c.018.417.032.836.032 1.258v47.002h27.198v-19.804c-.001-15.312-12.081-27.797-27.23-28.456z" fill="#ffc250"/></g><g><path d="m365.619 460.326h-99.477c-15.724 0-28.471-12.747-28.471-28.471v-89.667c0-15.724 12.747-28.471 28.471-28.471h99.477c15.724 0 28.471 12.747 28.471 28.471v89.667c-.001 15.724-12.747 28.471-28.471 28.471z" fill="#fff0af"/></g><g><path d="m366.86 313.749c.018.417.032.836.032 1.258v89.634c0 15.733-12.754 28.487-28.487 28.487h-99.445c-.422 0-.84-.014-1.258-.032.659 15.149 13.144 27.229 28.455 27.229h99.445c15.733 0 28.487-12.754 28.487-28.487v-89.634c0-15.311-12.08-27.796-27.229-28.455z" fill="#ffe07d"/></g><g><path d="m365.602 313.717h-99.445c-15.733 0-28.487 12.754-28.487 28.487v19.804h156.419v-19.804c0-15.733-12.754-28.487-28.487-28.487z" fill="#ffd064"/></g><g><path d="m366.86 313.749c.018.417.032.836.032 1.258v47.002h27.198v-19.804c0-15.312-12.081-27.797-27.23-28.456z" fill="#ffc250"/></g><g><path d="m448.145 350.383h-14.675c1.316-4.39 1.996-8.984 1.996-13.69v-289.166c0-26.206-21.321-47.527-47.527-47.527h-324.55c-26.206 0-47.527 21.321-47.527 47.527v90.383c0 4.144 3.36 7.504 7.504 7.504s7.504-3.36 7.504-7.504v-34.472h234.959c4.144 0 7.504-3.36 7.504-7.504s-3.36-7.504-7.504-7.504h-234.959v-40.903c0-17.931 14.588-32.519 32.519-32.519h324.55c17.931 0 32.519 14.588 32.519 32.519v40.903h-58.417v-11.232c0-8.552-6.957-15.509-15.509-15.509h-15.003c-8.912 0-16.872 5.32-20.28 13.555-10.606 25.622-35.377 42.179-63.108 42.179h-121.585c-15.172 0-27.516 12.344-27.516 27.516v5.198h-21.366c-15.053 0-27.299 12.246-27.299 27.299s12.246 27.299 27.299 27.299h21.367v5.197c0 15.172 12.344 27.516 27.516 27.516h17.929l13.128 24.952c1.938 3.704 6.542 5.059 10.135 3.147 3.668-1.93 5.077-6.468 3.147-10.135l-9.451-17.963h57.149l-2.567 27.842c-1.772 19.215 5.651 38.483 19.857 51.543l2.6 2.39c-5.19 6.239-8.317 14.252-8.317 22.982v1.52l-8.232 3.668c-1.2.535-2.62.044-3.231-1.12l-32.07-60.951c-1.93-3.668-6.468-5.077-10.135-3.147-3.668 1.93-5.077 6.468-3.147 10.135l32.069 60.951c3.112 5.916 9.209 9.352 15.534 9.352 2.38 0 4.792-.487 7.09-1.511l2.122-.946v9.057h-166.778c-17.931 0-32.519-14.588-32.519-32.519v-162c0-4.144-3.36-7.504-7.504-7.504s-7.504 3.36-7.504 7.504v161.999c0 26.207 21.321 47.527 47.527 47.527h166.777v47.618c0 19.846 16.146 35.991 35.991 35.991h46.551v8.179c0 19.846 16.146 35.991 35.991 35.991h99.445c19.846 0 35.991-16.146 35.991-35.991v-89.634c.001-19.847-16.144-35.992-35.99-35.992zm20.983 35.991v12.3h-67.534v-33.283h46.551c11.57 0 20.983 9.413 20.983 20.983zm-223.953-44.17c0-11.57 9.413-20.982 20.983-20.982h99.445c11.57 0 20.983 9.413 20.983 20.982v12.3h-141.41v-12.3zm116.866-196.759c17.099.636 30.816 14.738 30.816 31.989s-13.717 31.353-30.816 31.989zm-36.924-64.462c1.078-2.603 3.594-4.285 6.412-4.285h15.003c.276 0 .5.224.5.5v200.473c0 .276-.224.5-.5.5h-15.003c-2.818 0-5.335-1.682-6.412-4.286-12.936-31.253-43.15-51.448-76.975-51.448h-29.076v-90.007h29.076c33.824.001 64.039-20.194 76.975-51.447zm-247.443 108.742c-6.777 0-12.29-5.513-12.29-12.29s5.513-12.29 12.29-12.29h21.367v24.581h-21.367zm36.376 20.206v-64.993c0-6.897 5.611-12.507 12.507-12.507h45.863v90.008h-45.863c-6.897-.001-12.507-5.612-12.507-12.508zm73.379 12.507v-90.008h16.628v90.007h-16.628zm60.713 15.009c27.731 0 52.502 16.556 63.108 42.179 3.408 8.234 11.368 13.555 20.28 13.555h15.003c8.552 0 15.509-6.957 15.509-15.509v-53.238c25.376-.643 45.825-21.47 45.825-46.998s-20.449-46.355-45.825-46.998v-26.998h58.417v233.255c0 4.808-1.051 9.438-3.032 13.69h-15.831v-8.179c0-19.846-16.146-35.991-35.991-35.991h-99.445c-5.631 0-10.963 1.303-15.714 3.618l-4.404-4.048c-1.755-1.613-3.358-3.363-4.833-5.205 10.142-3.971 17.347-13.846 17.347-25.379 0-14.56-11.478-26.489-25.861-27.214l.972-10.538h14.475zm-14.456 49.756c-2.378-6.504-3.361-13.522-2.714-20.536l.342-3.708c6.746.004 12.233 5.493 12.233 12.24 0 5.934-4.247 10.892-9.861 12.004zm11.489 144.636v-62.326h141.41v62.326c0 11.57-9.413 20.983-20.983 20.983h-99.445c-11.569-.001-20.982-9.413-20.982-20.983zm202.97 65.152h-99.445c-11.57 0-20.982-9.413-20.982-20.983v-8.179h19.506c-.048.342-.081.688-.081 1.043 0 4.145 3.36 7.504 7.504 7.504h88.819c4.144 0 7.504-3.36 7.504-7.504s-3.36-7.504-7.504-7.504h-57.325c5.629-3.927 10.087-9.416 12.739-15.838h44.585c4.144 0 7.504-3.36 7.504-7.504s-3.36-7.504-7.504-7.504h-41.873v-16.839h67.534v62.326c.002 11.57-9.411 20.982-20.981 20.982z"/><path d="m58.804 52.393c0 12.987 10.566 23.553 23.553 23.553s23.553-10.566 23.553-23.553-10.566-23.553-23.553-23.553-23.553 10.566-23.553 23.553zm32.098 0c0 4.711-3.833 8.544-8.544 8.544s-8.544-3.833-8.544-8.544 3.833-8.544 8.544-8.544 8.544 3.832 8.544 8.544z"/><path d="m137.778 45.879c-4.144 0-7.504 3.36-7.504 7.504s3.36 7.504 7.504 7.504h60.06c4.144 0 7.504-3.36 7.504-7.504s-3.36-7.504-7.504-7.504z"/><path d="m229.782 45.879c-4.144 0-7.504 3.36-7.504 7.504s3.36 7.504 7.504 7.504h21.747c4.144 0 7.504-3.36 7.504-7.504s-3.36-7.504-7.504-7.504z"/><path d="m488.634 176.934h-29.392c-4.144 0-7.504 3.36-7.504 7.504s3.36 7.504 7.504 7.504h29.392c4.144 0 7.504-3.36 7.504-7.504s-3.36-7.504-7.504-7.504z"/><path d="m459.245 131.449c1.748 0 3.504-.607 4.925-1.845l21.913-19.08c3.126-2.721 3.454-7.462.732-10.587-2.721-3.126-7.462-3.454-10.587-.732l-21.913 19.08c-3.126 2.721-3.454 7.462-.732 10.587 1.483 1.705 3.567 2.577 5.662 2.577z"/><path d="m486.083 258.352-21.913-19.08c-3.125-2.722-7.866-2.394-10.587.732-2.722 3.125-2.394 7.866.732 10.587l21.913 19.08c1.421 1.238 3.177 1.845 4.925 1.845 2.095 0 4.179-.873 5.662-2.577 2.721-3.125 2.394-7.866-.732-10.587z"/><path d="m368.428 393.856c0-4.144-3.36-7.504-7.504-7.504h-88.819c-4.144 0-7.504 3.36-7.504 7.504s3.36 7.504 7.504 7.504h88.819c4.145 0 7.504-3.359 7.504-7.504z"/><path d="m329.513 417.199h-57.408c-4.144 0-7.504 3.36-7.504 7.504 0 4.145 3.36 7.504 7.504 7.504h57.408c4.144 0 7.504-3.36 7.504-7.504s-3.36-7.504-7.504-7.504z"/></g></g></svg>